<mxfile host="65bd71144e">
    <diagram id="szlabYtmz5tqC3guN1Is" name="Page-1">
        <mxGraphModel dx="879" dy="588" grid="1" gridSize="10" guides="1" tooltips="1" connect="1" arrows="1" fold="1" page="1" pageScale="1" pageWidth="850" pageHeight="1100" math="0" shadow="0">
            <root>
                <mxCell id="0"/>
                <mxCell id="1" parent="0"/>
                <mxCell id="2" value="" style="ellipse;whiteSpace=wrap;html=1;aspect=fixed;fillColor=none;strokeWidth=3;" vertex="1" parent="1">
                    <mxGeometry x="250" y="330" width="330" height="330" as="geometry"/>
                </mxCell>
                <mxCell id="4" value="" style="ellipse;whiteSpace=wrap;html=1;strokeWidth=1;fillColor=none;dashed=1;" vertex="1" parent="1">
                    <mxGeometry x="250" y="470" width="330" height="50" as="geometry"/>
                </mxCell>
                <mxCell id="5" value="" style="ellipse;whiteSpace=wrap;html=1;strokeWidth=1;fillColor=none;dashed=1;" vertex="1" parent="1">
                    <mxGeometry x="390" y="330" width="50" height="330" as="geometry"/>
                </mxCell>
                <mxCell id="6" value="" style="shape=umlActor;verticalLabelPosition=bottom;verticalAlign=top;html=1;outlineConnect=0;strokeWidth=3;fillColor=none;rotation=-55;" vertex="1" parent="1">
                    <mxGeometry x="290" y="330" width="30" height="60" as="geometry"/>
                </mxCell>
                <mxCell id="7" value="" style="verticalLabelPosition=bottom;verticalAlign=top;html=1;shape=mxgraph.basic.arc;startAngle=0.2597320323466235;endAngle=0.6701672353008665;strokeWidth=3;fillColor=none;" vertex="1" parent="1">
                    <mxGeometry x="310" y="340" width="210" height="50" as="geometry"/>
                </mxCell>
                <mxCell id="9" value="" style="endArrow=classic;html=1;entryX=0.858;entryY=0.847;entryDx=0;entryDy=0;entryPerimeter=0;exitX=0.753;exitY=0.931;exitDx=0;exitDy=0;exitPerimeter=0;strokeWidth=3;" edge="1" parent="1" source="7" target="7">
                    <mxGeometry width="50" height="50" relative="1" as="geometry">
                        <mxPoint x="400" y="460" as="sourcePoint"/>
                        <mxPoint x="450" y="410" as="targetPoint"/>
                    </mxGeometry>
                </mxCell>
                <mxCell id="16" value="" style="group" vertex="1" connectable="0" parent="1">
                    <mxGeometry x="370" y="420" width="110" height="90" as="geometry"/>
                </mxCell>
                <mxCell id="10" value="" style="endArrow=classic;html=1;rounded=0;strokeColor=#000099;strokeWidth=2;entryX=0.8;entryY=0.394;entryDx=0;entryDy=0;entryPerimeter=0;" edge="1" parent="16" target="5">
                    <mxGeometry width="50" height="50" relative="1" as="geometry">
                        <mxPoint x="39.920000000000186" y="80" as="sourcePoint"/>
                        <mxPoint x="10" y="40" as="targetPoint"/>
                    </mxGeometry>
                </mxCell>
                <mxCell id="11" value="" style="endArrow=classic;html=1;rounded=0;exitX=0.616;exitY=0.365;exitDx=0;exitDy=0;exitPerimeter=0;strokeColor=#FF3333;strokeWidth=2;" edge="1" parent="16">
                    <mxGeometry width="50" height="50" relative="1" as="geometry">
                        <mxPoint x="39.94003315175269" y="79.95175184357618" as="sourcePoint"/>
                        <mxPoint x="90" y="80" as="targetPoint"/>
                    </mxGeometry>
                </mxCell>
                <mxCell id="12" value="" style="endArrow=classic;html=1;rounded=0;entryX=0.4;entryY=0.636;entryDx=0;entryDy=0;entryPerimeter=0;fillColor=#cdeb8b;strokeColor=#009900;strokeWidth=2;" edge="1" parent="16" target="5">
                    <mxGeometry width="50" height="50" relative="1" as="geometry">
                        <mxPoint x="39.920000000000186" y="80" as="sourcePoint"/>
                        <mxPoint x="39.920000000000186" y="19.900000000000034" as="targetPoint"/>
                    </mxGeometry>
                </mxCell>
                <mxCell id="13" value="&lt;font face=&quot;CMU Typewriter Text&quot;&gt;&lt;span style=&quot;font-size: 16px;&quot;&gt;N&lt;/span&gt;&lt;/font&gt;" style="text;html=1;strokeColor=none;fillColor=none;align=center;verticalAlign=middle;whiteSpace=wrap;rounded=0;" vertex="1" parent="16">
                    <mxGeometry x="45" y="20" width="20" height="20" as="geometry"/>
                </mxCell>
                <mxCell id="14" value="&lt;font face=&quot;CMU Typewriter Text&quot;&gt;&lt;span style=&quot;font-size: 16px;&quot;&gt;E&lt;/span&gt;&lt;/font&gt;" style="text;html=1;strokeColor=none;fillColor=none;align=center;verticalAlign=middle;whiteSpace=wrap;rounded=0;" vertex="1" parent="16">
                    <mxGeometry x="90" y="70" width="20" height="20" as="geometry"/>
                </mxCell>
                <mxCell id="15" value="&lt;font face=&quot;CMU Typewriter Text&quot;&gt;&lt;span style=&quot;font-size: 16px;&quot;&gt;D&lt;/span&gt;&lt;/font&gt;" style="text;html=1;strokeColor=none;fillColor=none;align=center;verticalAlign=middle;whiteSpace=wrap;rounded=0;" vertex="1" parent="1">
                    <mxGeometry x="405" y="540" width="20" height="20" as="geometry"/>
                </mxCell>
                <mxCell id="23" value="" style="group;rotation=-55;" vertex="1" connectable="0" parent="1">
                    <mxGeometry x="230" y="280" width="110" height="90" as="geometry"/>
                </mxCell>
                <mxCell id="17" value="" style="endArrow=classic;html=1;rounded=0;strokeColor=#000099;strokeWidth=2;" edge="1" parent="23">
                    <mxGeometry width="50" height="50" relative="1" as="geometry">
                        <mxPoint x="75" y="78" as="sourcePoint"/>
                        <mxPoint x="25" y="79" as="targetPoint"/>
                    </mxGeometry>
                </mxCell>
                <mxCell id="18" value="" style="endArrow=classic;html=1;rounded=0;exitX=0.616;exitY=0.365;exitDx=0;exitDy=0;exitPerimeter=0;strokeColor=#FF3333;strokeWidth=2;" edge="1" parent="23">
                    <mxGeometry width="50" height="50" relative="1" as="geometry">
                        <mxPoint x="75" y="78" as="sourcePoint"/>
                        <mxPoint x="104" y="36" as="targetPoint"/>
                    </mxGeometry>
                </mxCell>
                <mxCell id="19" value="" style="endArrow=classic;html=1;rounded=0;entryX=0.75;entryY=0.19;entryDx=0;entryDy=0;entryPerimeter=0;fillColor=#cdeb8b;strokeColor=#009900;strokeWidth=2;" edge="1" parent="23">
                    <mxGeometry width="50" height="50" relative="1" as="geometry">
                        <mxPoint x="75" y="78" as="sourcePoint"/>
                        <mxPoint x="26" y="43" as="targetPoint"/>
                    </mxGeometry>
                </mxCell>
                <mxCell id="20" value="&lt;font style=&quot;font-size: 16px;&quot; face=&quot;CMU Typewriter Text&quot;&gt;Y&lt;sub&gt;B&lt;/sub&gt;&lt;/font&gt;" style="text;html=1;strokeColor=none;fillColor=none;align=center;verticalAlign=middle;whiteSpace=wrap;rounded=0;rotation=-55;" vertex="1" parent="23">
                    <mxGeometry x="7" y="63" width="20" height="20" as="geometry"/>
                </mxCell>
                <mxCell id="21" value="&lt;font style=&quot;&quot; face=&quot;CMU Typewriter Text&quot;&gt;&lt;span style=&quot;font-size: 16px;&quot;&gt;X&lt;sub&gt;B&lt;/sub&gt;&lt;/span&gt;&lt;/font&gt;" style="text;html=1;strokeColor=none;fillColor=none;align=center;verticalAlign=middle;whiteSpace=wrap;rounded=0;rotation=-55;" vertex="1" parent="23">
                    <mxGeometry x="100" y="19" width="20" height="20" as="geometry"/>
                </mxCell>
                <mxCell id="22" value="&lt;font style=&quot;font-size: 16px;&quot; face=&quot;CMU Typewriter Text&quot;&gt;Z&lt;sub&gt;B&lt;/sub&gt;&lt;/font&gt;" style="text;html=1;strokeColor=none;fillColor=none;align=center;verticalAlign=middle;whiteSpace=wrap;rounded=0;rotation=-55;" vertex="1" parent="23">
                    <mxGeometry x="8" y="27" width="20" height="20" as="geometry"/>
                </mxCell>
            </root>
        </mxGraphModel>
    </diagram>
</mxfile>